<svg width="64" height="64" viewBox="0 0 64 64" fill="none" xmlns="http://www.w3.org/2000/svg">
<path d="M33.4617 4.3368L51.2836 14.4987L53.4357 22.431L30.5218 9.36565C24.8974 6.15863 17.7054 8.06182 14.4581 13.6165C11.2108 19.1712 13.1379 26.274 18.7624 29.481L39.1303 41.0946C40.5364 41.8964 41.0182 43.6721 40.2064 45.0608C39.3946 46.4494 37.5966 46.9252 36.1905 46.1235L15.8225 34.5099C7.38585 29.6993 4.49523 19.0452 9.36614 10.7131C14.2371 2.38106 25.025 -0.473714 33.4617 4.3368Z" fill="#3DDC84"/>
<path d="M30.5383 59.6632L12.7163 49.5013L10.5642 41.569L33.4781 54.6344C39.1026 57.8414 46.2945 55.9382 49.5418 50.3835C52.7891 44.8288 50.862 37.726 45.2376 34.519L24.8696 22.9054C23.4635 22.1036 22.9817 20.3279 23.7936 18.9392C24.6054 17.5506 26.4034 17.0748 27.8095 17.8765L48.1774 29.4901C56.6141 34.3007 59.5047 44.9548 54.6338 53.2869C49.7629 61.6189 38.9749 64.4737 30.5383 59.6632Z" fill="#478CBF"/>
</svg>
